<?xml version="1.0" encoding="utf-8"?>
<!-- Generator: Adobe Illustrator 19.0.0, SVG Export Plug-In . SVG Version: 6.00 Build 0)  -->
<svg version="1.0" id="Layer_1" xmlns="http://www.w3.org/2000/svg" xmlns:xlink="http://www.w3.org/1999/xlink" x="0px" y="0px"
	 viewBox="0 0 1413 164.1" enable-background="new 0 0 1413 164.1" xml:space="preserve">
<g id="XMLID_1_">
	<g id="XMLID_213_">
		<linearGradient id="XMLID_127_" gradientUnits="userSpaceOnUse" x1="998.0259" y1="88.2476" x2="1411.6797" y2="88.2476">
			<stop  offset="0" style="stop-color:#FFFFFF"/>
			<stop  offset="1" style="stop-color:#000000"/>
		</linearGradient>
		<path id="XMLID_224_" fill="url(#XMLID_127_)" d="M1057.5,72.6c0-8.5-1.8-14.6-5.4-18.3c-3.6-3.7-8.7-5.6-15.4-5.6H998v-7.7h40.2
			c19.1,0,28.7,10.6,28.7,31.8v62.8h-9.5V72.6z M998,89.3l1.4-11.5h8.1v57.8H998V89.3z"/>
		<linearGradient id="XMLID_128_" gradientUnits="userSpaceOnUse" x1="998.0259" y1="88.2476" x2="1411.6797" y2="88.2476">
			<stop  offset="0" style="stop-color:#FFFFFF"/>
			<stop  offset="1" style="stop-color:#000000"/>
		</linearGradient>
		<path id="XMLID_222_" fill="url(#XMLID_128_)" d="M1093.8,127.6h26c9.9,0,17.7-2.6,23.6-7.7c5.8-5.2,8.8-14.1,8.8-26.8v-10
			c0-22.9-8.7-34.4-26-34.4h-19.8l-5,20.6c-0.9,4-1.4,7.3-1.4,9.8c0,4.2,1.1,7.6,3.4,10.1c2.3,2.5,6.1,4.2,11.4,5.1l-2.4,7.2
			c-7.3-1.1-12.7-3.5-16-7.1c-3.3-3.6-5-8.5-5-14.8c0-3.6,0.4-7.2,1.2-10.8l6.5-27.9h28.2c10.9,0,19.3,3.6,25.2,10.7
			c5.9,7.1,8.9,17.6,8.9,31.5v9.6c0,15.3-3.7,26.2-11.2,32.9c-7.5,6.7-17.2,10-29.2,10h-27.2V127.6z"/>
		<linearGradient id="XMLID_129_" gradientUnits="userSpaceOnUse" x1="998.0259" y1="88.2476" x2="1411.6797" y2="88.2476">
			<stop  offset="0" style="stop-color:#FFFFFF"/>
			<stop  offset="1" style="stop-color:#000000"/>
		</linearGradient>
		<path id="XMLID_220_" fill="url(#XMLID_129_)" d="M1185.8,61.1l-2.2-20.1h9.3l2.4,20.1v74.5h-9.5V61.1z"/>
		<linearGradient id="XMLID_130_" gradientUnits="userSpaceOnUse" x1="998.0259" y1="88.2476" x2="1411.6797" y2="88.2476">
			<stop  offset="0" style="stop-color:#FFFFFF"/>
			<stop  offset="1" style="stop-color:#000000"/>
		</linearGradient>
		<path id="XMLID_218_" fill="url(#XMLID_130_)" d="M1266.3,72.6c0-8.5-1.8-14.6-5.4-18.3c-3.6-3.7-8.7-5.6-15.4-5.6h-29.4v-7.7h31
			c19.1,0,28.7,10.6,28.7,31.8v62.8h-9.5V72.6z"/>
		<linearGradient id="XMLID_131_" gradientUnits="userSpaceOnUse" x1="998.0259" y1="88.2476" x2="1411.6797" y2="88.2476">
			<stop  offset="0" style="stop-color:#FFFFFF"/>
			<stop  offset="1" style="stop-color:#000000"/>
		</linearGradient>
		<path id="XMLID_216_" fill="url(#XMLID_131_)" d="M1302.8,61.1l-2.2-20.1h9.3l2.4,20.1v25.3l-0.2,10.8l-9.3,2.2V61.1z"/>
		<linearGradient id="XMLID_132_" gradientUnits="userSpaceOnUse" x1="998.0259" y1="88.2476" x2="1411.6797" y2="88.2476">
			<stop  offset="0" style="stop-color:#FFFFFF"/>
			<stop  offset="1" style="stop-color:#000000"/>
		</linearGradient>
		<path id="XMLID_214_" fill="url(#XMLID_132_)" d="M1401.4,135.5L1359.9,74l-19.4,61.6h-9.1l18.7-59.2l4.5-10.8l-15.7-24.6h9.8
			l15.7,24.6l17.4,25.8l3.8-13.8l11.5-36.6h9.3l-19.1,58.7l24.4,35.9H1401.4z"/>
	</g>
	<g id="XMLID_199_">
		<path id="XMLID_210_" d="M1057.5,72.6c0-8.5-1.8-14.6-5.4-18.3c-3.6-3.7-8.7-5.6-15.4-5.6H998v-7.7h40.2
			c19.1,0,28.7,10.6,28.7,31.8v62.8h-9.5V72.6z M998,89.3l1.4-11.5h8.1v57.8H998V89.3z"/>
		<path id="XMLID_208_" d="M1093.8,127.6h26c9.9,0,17.7-2.6,23.6-7.7c5.8-5.2,8.8-14.1,8.8-26.8v-10c0-22.9-8.7-34.4-26-34.4h-19.8
			l-5,20.6c-0.9,4-1.4,7.3-1.4,9.8c0,4.2,1.1,7.6,3.4,10.1c2.3,2.5,6.1,4.2,11.4,5.1l-2.4,7.2c-7.3-1.1-12.7-3.5-16-7.1
			c-3.3-3.6-5-8.5-5-14.8c0-3.6,0.4-7.2,1.2-10.8l6.5-27.9h28.2c10.9,0,19.3,3.6,25.2,10.7c5.9,7.1,8.9,17.6,8.9,31.5v9.6
			c0,15.3-3.7,26.2-11.2,32.9c-7.5,6.7-17.2,10-29.2,10h-27.2V127.6z"/>
		<path id="XMLID_206_" d="M1185.8,61.1l-2.2-20.1h9.3l2.4,20.1v74.5h-9.5V61.1z"/>
		<path id="XMLID_204_" d="M1266.3,72.6c0-8.5-1.8-14.6-5.4-18.3c-3.6-3.7-8.7-5.6-15.4-5.6h-29.4v-7.7h31
			c19.1,0,28.7,10.6,28.7,31.8v62.8h-9.5V72.6z"/>
		<path id="XMLID_202_" d="M1302.8,61.1l-2.2-20.1h9.3l2.4,20.1v25.3l-0.2,10.8l-9.3,2.2V61.1z"/>
		<path id="XMLID_200_" d="M1401.4,135.5L1359.9,74l-19.4,61.6h-9.1l18.7-59.2l4.5-10.8l-15.7-24.6h9.8l15.7,24.6l17.4,25.8
			l3.8-13.8l11.5-36.6h9.3l-19.1,58.7l24.4,35.9H1401.4z"/>
	</g>
</g>
<path id="XMLID_3_" fill="#010101" d="M866.6,0c-45.3,0-82.1,36.7-82.1,82.1s36.7,82.1,82.1,82.1c5.5,0,11-0.6,16.2-1.6
	c-2.1-1-2.3-8.6-0.3-12.9c2.3-4.8,9.6-17,2.4-21.1c-7.2-4.1-5.2-5.9-9.6-10.7s-2.6-5.4-2.9-6.7c-1-4.2,4.2-10.4,4.5-11.1
	c0.2-0.6,0.2-3,0.2-3.8s-3.3-2.6-4.1-2.7c-0.8-0.1-1.2,1.3-2.3,1.4c-1.1,0.1-6-3-7.1-3.8c-1-0.8-1.5-2.7-3-4.2
	c-1.4-1.4-1.6-0.3-3.8-1.2c-2.2-0.9-9.5-3.5-15-5.8c-5.5-2.2-6-5.4-6.1-7.6s-3.4-5.4-4.9-7.8c-1.5-2.3-1.8-5.5-2.4-4.8
	c-0.6,0.7,2.9,9.1,2.3,9.4c-0.6,0.2-1.8-2.3-3.4-4.4c-1.6-2.1,1.7-1-3.4-11.1c-5.1-10.1,1.6-15.2,1.9-20.5c0.3-5.3,4.3,1.9,2.2-1.4
	s0.2-10.4-1.4-13S816,21.8,816,21.8c0.2-2.5,8-6.7,13.6-10.7s9-0.9,13.5,0.6s4.8,1,3.3-0.5s0.6-2.2,4.2-1.6c3.5,0.6,4.5,4.8,9.9,4.4
	c5.4-0.4,0.6,1,1.3,2.4s-0.8,1.2-4.3,3.6c-3.5,2.4,0.1,2.4,6.3,7c6.3,4.6,4.3-3,3.7-6.4s4.6-0.7,4.6-0.7c3.8,2.6,3.1,0.1,5.9,1
	s10.4,7.3,10.4,7.3c-9.5,5.2-3.5,5.8-1.9,7s-3.3,3.5-3.3,3.5c-2-2-2.3,0.1-3.6,0.8c-1.3,0.7-0.1,2.6-0.1,2.6c-6.6,1-5.1,8-5,9.7
	c0.1,1.7-4.2,4.2-5.4,6.7c-1.1,2.4,2.9,7.6,0.8,7.9c-2.1,0.3-4.2-7.9-15.4-4.8c-3.4,0.9-10.9,4.8-6.9,12.7c4,7.9,10.7-2.2,12.9-1.1
	s-0.6,6.2-0.2,6.3c0.5,0.1,6.3,0.2,6.7,7.1c0.3,6.8,8.9,6.3,10.7,6.4s8-5,8.9-5.3c0.9-0.2,4.4-3.2,12.1,1.2
	c7.7,4.4,11.6,3.8,14.3,5.6c2.6,1.8,0.8,5.5,3.3,6.7s12.4-0.4,14.9,3.7c2.5,4.1-10.3,24.6-14.3,26.8c-4,2.2-5.8,7.4-9.9,10.7
	c-4,3.3-9.6,7.4-14.9,10.5c-4.7,2.8-5.5,7.8-7.6,9.3c36.7-8.2,64.2-40.9,64.2-80.1C948.7,36.7,911.9,0,866.6,0z M885.9,77
	c-1.1,0.3-3.4,2.4-9.1-1c-5.7-3.4-9.6-2.7-10.1-3.3c0,0-0.5-1.4,2-1.6c5.1-0.5,11.5,4.7,13,4.8s2.2-1.4,4.7-0.6
	C888.9,76.2,887,76.7,885.9,77z M859,8.2c-0.6-0.4,0.5-0.9,1.1-1.7c0.4-0.5,0.1-1.2,0.5-1.7c1.2-1.2,7.1-2.9,6,0.4
	C865.4,8.5,859.9,8.8,859,8.2z M873.4,18.6c-2-0.1-6.7-0.6-5.8-1.4c3.4-3.4-1.3-4.3-4.2-4.6s-4.1-1.8-2.6-2s7.2,0.1,8.2,0.9
	s6.2,2.9,6.5,4.4C875.7,17.4,875.4,18.7,873.4,18.6z M890.7,18c-1.6,1.3-9.7-4.6-11.2-5.9c-6.7-5.8-10.3-3.8-11.8-4.8
	c-1.4-1-0.9-2.2,1.3-4.2s8.3,0.6,11.8,1s7.6,3.1,7.7,6.4C888.6,13.8,892.3,16.7,890.7,18z"/>
<g id="XMLID_34_">
	<path id="XMLID_70_" fill="#414042" d="M72.5,72.8v62.8H63H3H0.4V40.9h9.3h34.1C62.9,40.9,72.5,51.6,72.5,72.8z M63,127.6v-55
		c0-8.5-1.8-14.6-5.4-18.3c-3.6-3.7-8.7-5.6-15.4-5.6H9.7v78.9H63z"/>
	<path id="XMLID_73_" fill="#414042" d="M99.5,61.1l-2.2-20.1h9.3l2.4,20.1v25.3l-0.2,10.8l-9.3,2.2V61.1z"/>
	<path id="XMLID_75_" fill="#414042" d="M180,72.6c0-8.5-1.8-14.6-5.4-18.3c-3.6-3.7-8.7-5.6-15.4-5.6h-29.4v-7.7h31
		c19.1,0,28.7,10.6,28.7,31.8v62.8H180V72.6z"/>
	<path id="XMLID_77_" fill="#414042" d="M206.3,130.7c6.9-0.6,11.7-2.6,14.5-6.2c2.8-3.6,4.2-8.7,4-15.5V40.9h38.9
		c19,0,28.6,10.6,28.6,31.8v62.8H283v-63c0-8.5-1.8-14.6-5.5-18.3c-3.7-3.7-8.8-5.6-15.5-5.6h-27.9v59.5c0,9.3-2.1,16.3-6.4,21.2
		c-4.2,4.8-11.1,7.6-20.5,8.4L206.3,130.7z"/>
	<path id="XMLID_79_" fill="#414042" d="M380.7,135.5L339.3,74l-19.4,61.6h-9.1l18.7-59.2l4.5-10.8l-15.7-24.6h9.8l15.7,24.6
		l17.4,25.8l3.8-13.8l11.5-36.6h9.3l-19.1,58.7l24.4,35.9H380.7z"/>
	<path id="XMLID_81_" fill="#414042" d="M436.1,130.7c6.9-0.6,11.7-2.6,14.5-6.2c2.8-3.6,4.2-8.7,4-15.5V40.9h38.9
		c19,0,28.6,10.6,28.6,31.8v62.8h-9.3v-63c0-8.5-1.8-14.6-5.5-18.3c-3.7-3.7-8.8-5.6-15.5-5.6H464v59.5c0,9.3-2.1,16.3-6.4,21.2
		c-4.2,4.8-11.1,7.6-20.5,8.4L436.1,130.7z"/>
	<path id="XMLID_83_" fill="#414042" d="M548.6,61.1l-2.2-20.1h9.3l2.4,20.1v25.3l-0.2,10.8l-9.3,2.2V61.1z"/>
	<path id="XMLID_103_" fill="#414042" d="M585.2,61.1L583,40.9h9.3l2.4,20.1v25.3l-0.2,10.8l-9.3,2.2V61.1z"/>
	<path id="XMLID_105_" fill="#414042" d="M616.5,127.6H648V67.8c0-6-1.2-10.4-3.7-13.4c-2.5-3-6.2-4.9-11.1-5.7l-11.4-1.9l1.5-7.7
		l12.6,2.1c14.2,2.5,21.3,11.4,21.3,26.5v67.9h-40.8V127.6z"/>
	<path id="XMLID_107_" fill="#414042" d="M752.4,127.6v7.9h-21.8h-50.9v-7.9h50.9v-55c0-8.5-1.8-14.6-5.5-18.3
		c-3.7-3.7-8.8-5.6-15.5-5.6h-29.9v-7.7h31.6c19,0,28.6,10.6,28.6,31.8v54.9H752.4z"/>
</g>
<g id="XMLID_68_">
</g>
<g id="XMLID_120_">
</g>
<g id="XMLID_122_">
</g>
<g id="XMLID_123_">
</g>
<g id="XMLID_124_">
</g>
<g id="XMLID_125_">
</g>
</svg>
